<?xml version="1.0" encoding="utf-8"?>
<!-- Generator: Adobe Illustrator 21.0.2, SVG Export Plug-In . SVG Version: 6.00 Build 0)  -->
<svg version="1.1" id="Layer_1" xmlns="http://www.w3.org/2000/svg" xmlns:xlink="http://www.w3.org/1999/xlink" x="0px" y="0px"
	 viewBox="0 0 28 28" style="enable-background:new 0 0 28 28;" xml:space="preserve">
<style type="text/css">
	.st0{opacity:0.5;}
	.st1{fill:#636682;}
	.st2{fill:#231F20;}
	.st3{fill:none;stroke:#231F20;}
</style>
<g id="lines_4_" class="st0">
	<g>
		<path class="st1" d="M24,15H4c-0.6,0-1-0.4-1-1s0.4-1,1-1h20c0.6,0,1,0.4,1,1S24.6,15,24,15z"/>
		<path class="st1" d="M24,6H4C3.4,6,3,5.6,3,5s0.4-1,1-1h20c0.6,0,1,0.4,1,1S24.6,6,24,6z"/>
		<path class="st1" d="M24,24H4c-0.6,0-1-0.4-1-1s0.4-1,1-1h20c0.6,0,1,0.4,1,1S24.6,24,24,24z"/>
	</g>
	<g>
		<path class="st2" d="M24,15H4c-0.6,0-1-0.4-1-1s0.4-1,1-1h20c0.6,0,1,0.4,1,1S24.6,15,24,15z"/>
		<path class="st2" d="M24,6H4C3.4,6,3,5.6,3,5s0.4-1,1-1h20c0.6,0,1,0.4,1,1S24.6,6,24,6z"/>
		<path class="st2" d="M24,24H4c-0.6,0-1-0.4-1-1s0.4-1,1-1h20c0.6,0,1,0.4,1,1S24.6,24,24,24z"/>
	</g>
	<g>
		<path class="st3" d="M24,15H4c-0.6,0-1-0.4-1-1s0.4-1,1-1h20c0.6,0,1,0.4,1,1S24.6,15,24,15z"/>
		<path class="st3" d="M24,6H4C3.4,6,3,5.6,3,5s0.4-1,1-1h20c0.6,0,1,0.4,1,1S24.6,6,24,6z"/>
		<path class="st3" d="M24,24H4c-0.6,0-1-0.4-1-1s0.4-1,1-1h20c0.6,0,1,0.4,1,1S24.6,24,24,24z"/>
	</g>
</g>
</svg>
